<svg viewBox="0 0 512 512" xmlns="http://www.w3.org/2000/svg" role="img" aria-label="Syncwrite">
  <defs>
    <linearGradient id="g" x1="0" y1="0" x2="1" y2="1">
      <stop offset="0" stop-color="#8b6cff"/>
      <stop offset="1" stop-color="#5b8def"/>
    </linearGradient>
  </defs>
  <rect width="512" height="512" rx="116" fill="url(#g)"/>
  <path d="M168 116h116l76 76v206a22 22 0 0 1-22 22H168a22 22 0 0 1-22-22V138a22 22 0 0 1 22-22Z" fill="#ffffff"/>
  <path d="M284 116v54a22 22 0 0 0 22 22h54Z" fill="#cdd9ff"/>
  <rect x="190" y="252" width="132" height="24" rx="12" fill="#7c5cff"/>
  <rect x="190" y="302" width="96" height="24" rx="12" fill="#b9a8ff"/>
  <circle cx="356" cy="360" r="36" fill="#34d399" stroke="#ffffff" stroke-width="14"/>
</svg>
